<svg width="24" height="24" viewBox="0 0 24 24" fill="none" xmlns="http://www.w3.org/2000/svg">
<path fill-rule="evenodd" clip-rule="evenodd" d="M9.42543 4.55818C5.66013 6.97629 3.56834 9.79079 3.15006 13.0016C2.49888 18.0002 6.96898 20.4468 9.23393 18.2485C11.4989 16.0502 10.1412 13.26 8.50113 12.4973C6.86108 11.7345 5.85813 12.0002 6.03308 10.9809C6.20803 9.96174 8.54133 7.13584 10.5912 5.81979C10.7272 5.70414 10.779 5.47974 10.648 5.30949C10.5619 5.19754 10.3929 4.97797 10.1412 4.65075C9.92103 4.36462 9.71013 4.37533 9.42543 4.55818Z" fill="#333333"/>
<path fill-rule="evenodd" clip-rule="evenodd" d="M19.3395 4.55818C15.5742 6.97629 13.4824 9.79079 13.0641 13.0016C12.413 18.0002 16.8831 20.4468 19.148 18.2485C21.413 16.0502 20.0553 13.26 18.4152 12.4973C16.7752 11.7345 15.7722 12.0002 15.9472 10.9809C16.1221 9.96174 18.4554 7.13584 20.5053 5.81979C20.6413 5.70414 20.6931 5.47974 20.5621 5.30949C20.476 5.19754 20.307 4.97797 20.0553 4.65075C19.8351 4.36462 19.6242 4.37533 19.3395 4.55818Z" fill="#333333"/>
</svg>
