<svg width="24" height="24" viewBox="0 0 24 24" fill="none" xmlns="http://www.w3.org/2000/svg">
<path d="M14.6722 15.2385C15.8741 14.9887 16.9646 14.5556 17.8123 13.9198C19.2601 12.834 20 11.157 20 9.50019C20 8.33784 19.5593 7.25274 18.7964 6.33364C18.3713 5.82149 19.6148 2.00019 18.51 2.51484C17.4053 3.02948 15.7854 4.16864 14.9363 3.91723C14.0273 3.64807 13.0366 3.50019 12 3.50019C11.0996 3.50019 10.234 3.61175 9.4263 3.81744C8.2523 4.11643 7.12955 3.00019 6 2.51484C4.87043 2.02948 5.4868 5.98184 5.1513 6.39744C4.42059 7.30279 4 8.36464 4 9.50019C4 11.157 4.89543 12.834 6.34315 13.9198C7.30755 14.6431 8.517 15.104 9.87005 15.3312" stroke="#333333" stroke-width="2" stroke-linecap="round"/>
<path d="M9.86885 15.3311C9.2896 15.9686 9 16.574 9 17.1473C9 17.7206 9 19.1733 9 21.5054" stroke="#333333" stroke-width="2" stroke-linecap="round"/>
<path d="M14.6719 15.2383C15.2207 15.9587 15.4952 16.6055 15.4952 17.1788C15.4952 17.7521 15.4952 19.1942 15.4952 21.5053" stroke="#333333" stroke-width="2" stroke-linecap="round"/>
<path d="M3 15.6079C3.44943 15.6629 3.78277 15.8695 4 16.2279C4.32585 16.7653 5.5371 18.7592 6.91255 18.7592C7.82955 18.7592 8.52575 18.7592 9.0012 18.7592" stroke="#333333" stroke-width="2" stroke-linecap="round"/>
</svg>
