<svg width="24" height="24" viewBox="0 0 24 24" fill="none" xmlns="http://www.w3.org/2000/svg">
<path d="M13.059 18.7174C13.059 18.7174 18.7158 13.0605 20.13 11.6463C21.5442 10.2321 22.2513 6.69652 19.7765 4.22167C17.3016 1.74679 13.7661 2.4539 12.3518 3.86811C10.9376 5.28232 3.51304 12.707 2.80593 13.4141C2.09882 14.1212 1.03816 16.596 3.15948 18.7174C5.2808 20.8387 7.7557 19.778 8.4628 19.0709C9.1699 18.3638 16.9481 10.5856 17.6552 9.87852C18.3623 9.17142 18.7159 7.40367 17.6552 6.34297C16.5945 5.28232 14.8267 5.63587 14.1196 6.34297C13.4125 7.05012 7.40215 13.0605 7.40215 13.0605" stroke="#333333" stroke-width="2" stroke-linecap="round" stroke-linejoin="round"/>
</svg>
